Coordinates
version=1
nRows=22
nColumns=24
inDegrees=yes

Units are S.I. units (second, meters, Newtons, ...)
If the header above contains a line with 'inDegrees', this indicates whether rotational values are in degrees (yes) or radians (no).

endheader
time	pelvis_tilt	pelvis_list	pelvis_rotation	pelvis_tx	pelvis_ty	pelvis_tz	hip_flexion_r	hip_adduction_r	hip_rotation_r	knee_angle_r	ankle_angle_r	subtalar_angle_r	mtp_angle_r	hip_flexion_l	hip_adduction_l	hip_rotation_l	knee_angle_l	ankle_angle_l	subtalar_angle_l	mtp_angle_l	lumbar_extension	lumbar_bending	lumbar_rotation
      1.50666667	      4.40535147	     -4.43564259	    -10.54520624	      0.51968813	      0.72609011	      0.38491214	    -11.41807585	      6.90083215	     -3.14294170	    -18.07045627	     26.44784685	      5.86917457	      0.00000000	     21.61786130	    -11.34486932	    -20.18551222	    -16.58244509	      6.32768343	     -3.38156427	      0.00000000	      0.00000000	      0.00000000	      0.00000000
      1.51333333	      4.32013669	     -4.41852400	    -10.82684210	      0.52811325	      0.72480289	      0.38468723	    -11.83602759	      6.60107782	     -2.97550474	    -18.47085740	     26.61155329	      6.08566098	      0.00000000	     21.41991558	    -11.03896995	    -21.24367211	    -14.37867906	      6.51371319	     -2.51296784	      0.00000000	      0.00000000	      0.00000000	      0.00000000
      1.52000000	      4.51147009	     -4.40551198	    -11.09886617	      0.53667718	      0.72376811	      0.38444902	    -12.53158751	      6.21905322	     -2.82261854	    -18.92374404	     26.87440605	      6.65356872	      0.00000000	     20.96160654	    -10.70332760	    -22.44173399	    -12.51619773	      6.94130702	     -1.28961562	      0.00000000	      0.00000000	      0.00000000	      0.00000000
      1.52666667	      4.46358483	     -4.32964584	    -11.41509296	      0.54518903	      0.72255585	      0.38421428	    -12.82648766	      5.82880435	     -2.51880191	    -19.58720100	     26.93078844	      6.79438049	      0.00000000	     20.81005766	    -10.31857244	    -23.40961117	    -10.95760651	      7.03364908	     -0.68877532	      0.00000000	      0.00000000	      0.00000000	      0.00000000
      1.53333333	      4.58568892	     -4.21563363	    -11.70604855	      0.55392208	      0.72154140	      0.38399243	    -13.27126250	      5.33167083	     -2.31677867	    -20.31733194	     27.01140962	      7.20425736	      0.00000000	     20.52444664	     -9.88663396	    -24.45102616	     -9.77755569	      7.27312339	      0.04437997	      0.00000000	      0.00000000	      0.00000000	      0.00000000
      1.54000000	      4.65358529	     -4.06304040	    -11.96647212	      0.56270515	      0.72054243	      0.38376809	    -13.56400685	      4.81965200	     -2.10177351	    -21.18876578	     26.90562871	      7.44548463	      0.00000000	     20.34764205	     -9.42260311	    -25.27761257	     -8.94016588	      7.38698692	      0.47465982	      0.00000000	      0.00000000	      0.00000000	      0.00000000
      1.54666667	      4.59140965	     -4.11874686	    -11.80719587	      0.57160953	      0.71939676	      0.38351167	    -13.93533219	      4.75225641	     -1.94452221	    -21.75018133	     26.75050299	      7.47753409	      0.00000000	     20.58620477	     -9.17801921	    -25.40197305	     -8.77326264	      7.43332889	      0.48589387	      0.00000000	      0.00000000	      0.00000000	      0.00000000
      1.55333333	      4.78803378	     -3.83903281	    -12.15755182	      0.58041655	      0.71871509	      0.38327656	    -14.00094843	      3.98751568	     -1.90897606	    -23.17736008	     25.98280552	      7.54426867	      0.00000000	     20.30928182	     -8.61745471	    -26.00177219	     -8.58343849	      7.54683120	      0.56962901	      0.00000000	      0.00000000	      0.00000000	      0.00000000
      1.56000000	      4.84017181	     -3.69198922	    -12.10585813	      0.58961778	      0.71795512	      0.38322481	    -14.30793240	      3.66844594	     -1.59641937	    -24.02402401	     25.61814514	      7.66046203	      0.00000000	     20.34934570	     -8.21528880	    -26.02196054	     -8.85786879	      7.48279305	      0.60194025	      0.00000000	      0.00000000	      0.00000000	      0.00000000
      1.56666667	      5.27114938	     -3.09212982	    -12.70554691	      0.59887139	      0.71775855	      0.38313403	    -14.30515152	      2.27412006	     -1.91044182	    -25.86488741	     25.01071351	      8.88726690	      0.00000000	     19.68404237	     -7.36483223	    -26.92986903	     -8.92680480	      7.11463603	      0.44262590	      0.00000000	      0.00000000	      0.00000000	      0.00000000
      1.57333333	      5.51792349	     -2.88752033	    -12.76364066	      0.60804113	      0.71742587	      0.38308611	    -14.42206774	      1.70819788	     -1.94885879	    -27.27769158	     23.91069992	      8.97304045	      0.00000000	     19.54236131	     -6.96757111	    -26.79941709	     -9.72008203	      6.89465140	      0.28155244	      0.00000000	      0.00000000	      0.00000000	      0.00000000
      1.58000000	      5.59476349	     -2.44407011	    -12.86986815	      0.61735038	      0.71706239	      0.38289924	    -14.11693856	      0.82964775	     -2.19364098	    -28.99746233	     22.69296288	      9.51095027	      0.00000000	     19.46366022	     -6.25717495	    -26.26866258	    -10.33998006	      6.04581983	     -0.88084317	      0.00000000	      0.00000000	      0.00000000	      0.00000000
      1.58666667	      5.90661022	     -2.19591630	    -12.89748005	      0.62663723	      0.71702969	      0.38287709	    -14.08983197	      0.18024710	     -2.34506064	    -30.68046855	     21.07563672	      9.63508315	      0.00000000	     19.25603497	     -5.83651250	    -25.76237585	    -11.43134044	      5.66256938	     -1.07909464	      0.00000000	      0.00000000	      0.00000000	      0.00000000
      1.59333333	      6.07813967	     -1.80467145	    -12.87564146	      0.63605155	      0.71702238	      0.38274255	    -13.76469470	     -0.62073149	     -2.67171360	    -32.50921851	     19.03965226	      9.80789507	      0.00000000	     19.15730732	     -5.22860218	    -24.85506639	    -12.46220935	      4.96707001	     -1.71632975	      0.00000000	      0.00000000	      0.00000000	      0.00000000
      1.60000000	      5.85454310	     -1.34665917	    -12.72782170	      0.64515621	      0.71669093	      0.38226684	    -12.75230317	     -1.39596533	     -3.12832491	    -34.68839471	     16.89314390	      9.95140286	      0.00000000	     19.46407856	     -4.44058506	    -23.00412614	    -13.30324526	      3.41933573	     -4.28368652	      0.00000000	      0.00000000	      0.00000000	      0.00000000
      1.60666667	      6.20718601	     -0.98323965	    -12.70247409	      0.65444184	      0.71702345	      0.38206283	    -12.36181518	     -2.24719341	     -3.45788154	    -36.79827287	     14.30560725	     10.04637528	      0.00000000	     19.18587539	     -3.86583201	    -22.00723623	    -14.49728271	      2.99033249	     -4.52645547	      0.00000000	      0.00000000	      0.00000000	      0.00000000
      1.61333333	      5.85018061	     -0.48890148	    -12.47176355	      0.66353331	      0.71681824	      0.38148619	    -11.00363465	     -3.00969370	     -3.88652381	    -39.11114255	     11.33600566	      9.61532034	      0.00000000	     19.61030150	     -3.02312643	    -19.72550622	    -15.37603196	      1.42848571	     -7.19020172	      0.00000000	      0.00000000	      0.00000000	      0.00000000
      1.62000000	      6.07174216	      0.00819264	    -12.37024133	      0.67290519	      0.71722497	      0.38105763	    -10.24380264	     -4.02135856	     -4.33573694	    -41.35668274	      8.12064690	      9.45724293	      0.00000000	     19.39461314	     -2.24081562	    -18.36757218	    -16.42690550	      0.99273884	     -7.72437922	      0.00000000	      0.00000000	      0.00000000	      0.00000000
      1.62666667	      5.77972481	      0.45771214	    -12.13137794	      0.68179821	      0.71720196	      0.38041136	     -8.72435416	     -4.74093041	     -4.61039976	    -43.81840300	      4.61249776	      8.50881803	      0.00000000	     19.72405177	     -1.44092416	    -16.18727982	    -17.34190292	     -0.32380148	    -10.39348654	      0.00000000	      0.00000000	      0.00000000	      0.00000000
      1.63333333	      6.08283894	      0.96303854	    -12.01853772	      0.69100825	      0.71776938	      0.37986061	     -7.83071529	     -5.79148584	     -4.94729937	    -46.18555697	      1.22262755	      8.21332123	      0.00000000	     19.34496346	     -0.62120027	    -14.97061881	    -18.27429309	     -0.42802220	    -10.85548922	      0.00000000	      0.00000000	      0.00000000	      0.00000000
      1.64000000	      5.78079406	      1.39203657	    -11.81588309	      0.69981415	      0.71790860	      0.37923291	     -6.12231164	     -6.46690339	     -5.05842980	    -48.64288585	     -2.50798315	      6.64293767	      0.00000000	     19.54505701	      0.16010832	    -13.00110493	    -19.02198696	     -1.58959784	    -13.47472263	      0.00000000	      0.00000000	      0.00000000	      0.00000000
      1.64666667	      5.86053997	      1.87380337	    -11.67241311	      0.70881513	      0.71841588	      0.37870200	     -4.80485380	     -7.33039109	     -5.15728490	    -51.01144000	     -5.98210141	      5.38339941	      0.00000000	     19.28510639	      0.96269685	    -11.77398337	    -19.75718391	     -1.91088171	    -14.68962654	      0.00000000	      0.00000000	      0.00000000	      0.00000000
